<svg width="470" height="470" viewBox="0 0 470 470" fill="none" xmlns="http://www.w3.org/2000/svg">
<circle cx="235" cy="235" r="235" fill="#44E444"/>
<path d="M314.949 154.029C304.544 143.518 292.149 135.184 278.489 129.514C264.829 123.843 250.177 120.949 235.386 121.001C173.415 121.001 122.908 171.508 122.908 233.479C122.908 253.341 128.129 272.636 137.89 289.661L122 348L181.587 332.337C198.045 341.304 216.545 346.07 235.386 346.07C297.357 346.07 347.864 295.563 347.864 233.592C347.864 203.515 336.174 175.254 314.949 154.029ZM235.386 327.003C218.588 327.003 202.131 322.463 187.716 313.95L184.311 311.907L148.899 321.214L158.32 286.71L156.05 283.192C146.717 268.289 141.762 251.063 141.749 233.479C141.749 181.95 183.744 139.955 235.273 139.955C260.243 139.955 283.737 149.716 301.33 167.422C310.04 176.093 316.944 186.407 321.639 197.765C326.335 209.124 328.729 221.302 328.683 233.592C328.91 285.121 286.915 327.003 235.386 327.003ZM286.688 257.087C283.851 255.725 270.004 248.915 267.507 247.893C264.896 246.985 263.08 246.531 261.151 249.255C259.221 252.093 253.887 258.449 252.298 260.265C250.709 262.194 249.006 262.421 246.169 260.946C243.331 259.584 234.251 256.519 223.582 246.985C215.183 239.494 209.622 230.301 207.919 227.463C206.33 224.626 207.692 223.15 209.168 221.675C210.416 220.426 212.005 218.383 213.367 216.794C214.729 215.205 215.297 213.957 216.205 212.141C217.113 210.211 216.659 208.622 215.978 207.26C215.297 205.898 209.622 192.051 207.352 186.376C205.082 180.928 202.698 181.609 200.996 181.496H195.548C193.618 181.496 190.667 182.177 188.057 185.014C185.56 187.852 178.296 194.662 178.296 208.509C178.296 222.356 188.397 235.749 189.759 237.565C191.121 239.494 209.622 267.869 237.77 280.014C244.466 282.965 249.687 284.667 253.773 285.916C260.47 288.072 266.599 287.732 271.479 287.051C276.927 286.256 288.164 280.241 290.434 273.658C292.817 267.075 292.817 261.513 292.023 260.265C291.228 259.016 289.526 258.449 286.688 257.087Z" fill="#F8F8F8"/>
<circle cx="339.5" cy="168.5" r="17.5" fill="#FF0505"/>
</svg>
